Coordinates
version=1
nRows=4
nColumns=107
inDegrees=yes

Units are S.I. units (second, meters, Newtons, ...)
If the header above contains a line with 'inDegrees', this indicates whether rotational values are in degrees (yes) or radians (no).

endheader
time	sternoclavicular_r2	sternoclavicular_r3	unrotscap_r3	unrotscap_r2	acromioclavicular_r2	acromioclavicular_r3	acromioclavicular_r1	unrothum_r1	unrothum_r3	unrothum_r2	elv_angle	shoulder_elv	shoulder1_r2	shoulder_rot	elbow_flexion	pro_sup	deviation	flexion	proximal_distal_r1	proximal_distal_r3	cmc_flexion	cmc_abduction	mp_flexion	ip_flexion	mcp2_flexion	mcp2_abduction	pm2_flexion	md2_flexion	mcp3_flexion	mcp3_abduction	pm3_flexion	md3_flexion	mcp4_flexion	mcp4_abduction	pm4_flexion	md4_flexion	mcp5_flexion	mcp5_abduction	pm5_flexion	md5_flexion	bicpt_tx	bicpt_ty	bicpt_tz	bicpt2_tx	bicpt2_ty	bicpt2_tz	ptpt_tx	ptpt_ty	ptpt_tz	FCUpt_tx	FCUpt_ty	FCUpt_tz	EDCpt_tx	EDCpt_ty	EDCpt_tz	APLpt_tx	APLpt_ty	APLpt_tz	FPLpt_tx	FPLpt_ty	FPLpt_tz	FPLpt2_tx	FPLpt2_ty	FPLpt2_tz	PEC1pt2_tx	PEC1pt2_ty	PEC1pt2_tz	PEC1pt3_tx	PEC1pt3_ty	PEC1pt3_tz	PEC2pt2_tx	PEC2pt2_ty	PEC2pt2_tz	PEC2pt3_tx	PEC2pt3_ty	PEC2pt3_tz	PEC3pt2_tx	PEC3pt2_ty	PEC3pt2_tz	PEC3pt3_tx	PEC3pt3_ty	PEC3pt3_tz	DELT2pt2a_tx	DELT2pt2a_ty	DELT2pt2a_tz	DELT2pt2_tx	DELT2pt2_ty	DELT2pt2_tz	LAT1pt2_tx	LAT1pt2_ty	LAT1pt2_tz	LAT1pt3_tx	LAT1pt3_ty	LAT1pt3_tz	LAT2pt2_tx	LAT2pt2_ty	LAT2pt2_tz	LAT2pt3_tx	LAT2pt3_ty	LAT2pt3_tz	LAT3pt2_tx	LAT3pt2_ty	LAT3pt2_tz	LAT3pt3_tx	LAT3pt3_ty	LAT3pt3_tz
      0.46666667	     -0.32219250	      0.13646553	     -0.13646553	      0.32219250	     -0.06523743	      0.52722593	      0.23698443	     -0.23698443	     -0.52722593	      0.06523743	     99.57737248	     76.28193721	     -1.73795301	    -23.00993428	     27.92747155	     25.12014055	      0.11644523	     -0.60167517	      0.14693413	     -0.30083758	     -4.83303503	      1.31415747	    -31.04154387	    -20.03808669	    -14.27189014	     11.04979745	     14.79989043	    -27.32194264	     61.84968352	      8.48550344	     86.33330819	     69.55436857	     50.88779211	     -4.31215032	     89.50542370	     41.71339908	      3.39738283	    -13.12600273	    -18.36413238	      4.94039512	      0.00082375	     -0.03080092	     -0.00481558	      0.01629335	     -0.01778663	     -0.00890326	      0.00569391	     -0.06610018	     -0.00207356	      0.00631632	     -0.18377317	     -0.00019742	     -0.00301441	      0.00080911	      0.00019324	      0.00031243	      0.00012497	      0.00062486	      0.00039991	      0.00119974	      0.00067485	     -0.00034273	      0.00013379	      0.00016054	      0.00250035	      0.00877243	      0.00610256	     -0.00817913	      0.01974856	     -0.01873147	      0.00250035	      0.00877243	      0.00610256	      0.00055093	      0.01830768	     -0.00962001	      0.00395229	      0.00487824	      0.01597827	      0.00000000	      0.00778219	      0.00000000	     -0.00716203	     -0.03309791	     -0.00641679	      0.01545257	     -0.00052613	     -0.00441295	     -0.00088996	      0.01491737	     -0.00610256	      0.00245798	      0.02152848	     -0.01779913	     -0.00597542	      0.01292556	     -0.00546688	     -0.01245939	      0.02729201	     -0.03055518	     -0.02339315	      0.01445120	     -0.00733155	     -0.01551067	      0.03152989	     -0.03818338
      0.50000000	     -0.32223356	      0.13648293	     -0.13648293	      0.32223356	     -0.06524574	      0.52729313	      0.23701463	     -0.23701463	     -0.52729313	      0.06524574	     99.58563721	     76.29166016	     -1.73809726	    -22.81134943	     27.73728774	     23.73843851	      0.09471001	     -0.65407155	      0.12119285	     -0.32703577	     -5.15204439	      1.68733359	    -31.82119466	    -17.43736036	    -13.22109261	     10.94997818	     13.59861880	    -25.92514349	     61.89410406	      7.98561940	     86.17998731	     69.65304227	     50.71495051	     -4.83727837	     90.14784905	     41.19146649	      2.70183335	    -13.17968638	    -17.74913468	      4.92892504	      0.00081746	     -0.03077912	     -0.00481207	      0.01624154	     -0.01773497	     -0.00902059	      0.00579600	     -0.06603417	     -0.00196226	      0.00618385	     -0.18379580	     -0.00017141	     -0.00284861	      0.00075955	      0.00019150	      0.00031094	      0.00012437	      0.00062187	      0.00039800	      0.00119400	      0.00067162	     -0.00038280	      0.00014355	      0.00017226	      0.00250067	      0.00877355	      0.00610334	     -0.00818017	      0.01975108	     -0.01873386	      0.00250067	      0.00877355	      0.00610334	      0.00055100	      0.01831001	     -0.00962123	      0.00395266	      0.00487886	      0.01597916	      0.00000000	      0.00778419	      0.00000000	     -0.00716295	     -0.03310213	     -0.00641845	      0.01534570	     -0.00051981	     -0.00433520	     -0.00089007	      0.01491927	     -0.00610334	      0.00245829	      0.02153122	     -0.01780140	     -0.00597619	      0.01292721	     -0.00546757	     -0.01246098	      0.02729548	     -0.03055907	     -0.02339613	      0.01445304	     -0.00733248	     -0.01551265	      0.03153391	     -0.03818825
      0.53333333	     -0.32251441	      0.13660188	     -0.13660188	      0.32251441	     -0.06530261	      0.52775270	      0.23722121	     -0.23722121	     -0.52775270	      0.06530261	     99.52643879	     76.35815229	     -1.73706405	    -22.53149757	     27.77204005	     23.83274456	      0.10363164	     -0.63568158	      0.13185278	     -0.31784079	     -5.08359117	      1.56978445	    -31.30989798	    -18.18870294	    -13.81051110	     10.88248938	     14.19147576	    -26.19893968	     61.72486219	      8.20079721	     86.32173676	     68.97777891	     50.73661160	     -4.60754181	     90.03627892	     41.48684178	      3.16806197	    -13.14404877	    -17.74809781	      4.92748220	      0.00081861	     -0.03078310	     -0.00481271	      0.01624522	     -0.01774441	     -0.00901267	      0.00578903	     -0.06603867	     -0.00196986	      0.00619287	     -0.18379427	     -0.00017323	     -0.00285992	      0.00076291	      0.00019165	      0.00031198	      0.00012479	      0.00062397	      0.00039934	      0.00119802	      0.00067389	     -0.00037405	      0.00014145	      0.00016974	      0.00250285	      0.00878119	      0.00610866	     -0.00818730	      0.01976829	     -0.01875018	      0.00250285	      0.00878119	      0.00610866	      0.00055148	      0.01832597	     -0.00962962	      0.00395517	      0.00488311	      0.01598529	      0.00000000	      0.00779786	      0.00000000	     -0.00716919	     -0.03313098	     -0.00642980	      0.01519421	     -0.00051093	     -0.00422661	     -0.00089085	      0.01493227	     -0.00610866	      0.00246043	      0.02154999	     -0.01781692	     -0.00598139	      0.01293848	     -0.00547234	     -0.01247184	      0.02731927	     -0.03058571	     -0.02341652	      0.01446564	     -0.00733887	     -0.01552617	      0.03156140	     -0.03822153
      0.56666667	     -0.32181259	      0.13630463	     -0.13630463	      0.32181259	     -0.06516050	      0.52660427	      0.23670500	     -0.23670500	     -0.52660427	      0.06516050	     99.69544472	     76.19199204	     -1.74001376	    -23.38412644	     27.75344161	     24.33267832	      0.09507675	     -0.64527187	      0.12163427	     -0.32263594	     -5.17584155	      1.57929383	    -31.59949857	    -17.00034166	    -13.63397055	     10.71863468	     13.79535191	    -25.99795912	     61.69888180	      8.11140447	     86.22492425	     69.69643084	     50.38423582	     -4.60134496	     90.51500966	     41.42538253	      3.41155691	    -13.15771368	    -17.71409202	      4.93329643	      0.00081800	     -0.03078097	     -0.00481237	      0.01626436	     -0.01773936	     -0.00897046	      0.00575209	     -0.06606256	     -0.00201013	      0.00624075	     -0.18378613	     -0.00018277	     -0.00291991	      0.00078079	      0.00019238	      0.00031152	      0.00012461	      0.00062305	      0.00039875	      0.00119625	      0.00067289	     -0.00038581	      0.00014428	      0.00017313	      0.00249741	      0.00876209	      0.00609536	     -0.00816948	      0.01972528	     -0.01870938	      0.00249741	      0.00876209	      0.00609536	      0.00055028	      0.01828609	     -0.00960866	      0.00394889	      0.00487249	      0.01596996	      0.00000000	      0.00776372	      0.00000000	     -0.00715359	     -0.03305889	     -0.00640146	      0.01565249	     -0.00053808	     -0.00456105	     -0.00088891	      0.01489978	     -0.00609536	      0.00245508	      0.02150309	     -0.01777815	     -0.00596838	      0.01291032	     -0.00546043	     -0.01244470	      0.02725982	     -0.03051915	     -0.02336556	      0.01443416	     -0.00732290	     -0.01549238	      0.03149272	     -0.03813836
